<mxfile host="Electron" agent="Mozilla/5.0 (Windows NT 10.0; Win64; x64) AppleWebKit/537.36 (KHTML, like Gecko) draw.io/24.7.17 Chrome/128.0.6613.36 Electron/32.0.1 Safari/537.36" version="24.7.17" pages="4">
  <diagram name="IR off" id="N3g8AIN1H0GoQaQh5put">
    <mxGraphModel dx="1053" dy="771" grid="1" gridSize="10" guides="1" tooltips="1" connect="1" arrows="1" fold="1" page="1" pageScale="1" pageWidth="850" pageHeight="1100" math="0" shadow="0">
      <root>
        <mxCell id="0" />
        <mxCell id="1" parent="0" />
        <mxCell id="dFZmi3MEQGuQQrMwcZB3-5" value="" style="group" vertex="1" connectable="0" parent="1">
          <mxGeometry x="290" y="140" width="170" height="90" as="geometry" />
        </mxCell>
        <mxCell id="dFZmi3MEQGuQQrMwcZB3-4" value="" style="rounded=1;whiteSpace=wrap;html=1;" vertex="1" parent="dFZmi3MEQGuQQrMwcZB3-5">
          <mxGeometry width="170" height="90" as="geometry" />
        </mxCell>
        <mxCell id="dFZmi3MEQGuQQrMwcZB3-3" value="" style="verticalLabelPosition=bottom;shadow=0;dashed=0;align=center;html=1;verticalAlign=top;shape=mxgraph.electrical.opto_electronics.photodiode;pointerEvents=1;" vertex="1" parent="dFZmi3MEQGuQQrMwcZB3-5">
          <mxGeometry x="35" y="10" width="100" height="70" as="geometry" />
        </mxCell>
        <mxCell id="dFZmi3MEQGuQQrMwcZB3-6" value="" style="group" vertex="1" connectable="0" parent="1">
          <mxGeometry x="290" y="460" width="170" height="90" as="geometry" />
        </mxCell>
        <mxCell id="dFZmi3MEQGuQQrMwcZB3-1" value="" style="rounded=1;whiteSpace=wrap;html=1;" vertex="1" parent="dFZmi3MEQGuQQrMwcZB3-6">
          <mxGeometry width="170" height="90" as="geometry" />
        </mxCell>
        <mxCell id="dFZmi3MEQGuQQrMwcZB3-2" value="" style="verticalLabelPosition=bottom;shadow=0;dashed=0;align=center;html=1;verticalAlign=top;shape=mxgraph.electrical.opto_electronics.led_1;pointerEvents=1;" vertex="1" parent="dFZmi3MEQGuQQrMwcZB3-6">
          <mxGeometry x="35" y="12.5" width="100" height="65" as="geometry" />
        </mxCell>
        <mxCell id="dFZmi3MEQGuQQrMwcZB3-8" value="ADC: 1023" style="text;html=1;align=center;verticalAlign=middle;resizable=0;points=[];autosize=1;strokeColor=none;fillColor=none;" vertex="1" parent="1">
          <mxGeometry x="460" y="198" width="80" height="30" as="geometry" />
        </mxCell>
      </root>
    </mxGraphModel>
  </diagram>
  <diagram id="hd0cPiowxrhF3CxCokZh" name="IR on, close">
    <mxGraphModel dx="1106" dy="810" grid="1" gridSize="10" guides="1" tooltips="1" connect="1" arrows="1" fold="1" page="1" pageScale="1" pageWidth="850" pageHeight="1100" math="0" shadow="0">
      <root>
        <mxCell id="0" />
        <mxCell id="1" parent="0" />
        <mxCell id="NtnauqmUkGIrvGF-mDY7-1" value="" style="group" vertex="1" connectable="0" parent="1">
          <mxGeometry x="290" y="140" width="170" height="90" as="geometry" />
        </mxCell>
        <mxCell id="NtnauqmUkGIrvGF-mDY7-2" value="" style="rounded=1;whiteSpace=wrap;html=1;" vertex="1" parent="NtnauqmUkGIrvGF-mDY7-1">
          <mxGeometry width="170" height="90" as="geometry" />
        </mxCell>
        <mxCell id="NtnauqmUkGIrvGF-mDY7-3" value="" style="verticalLabelPosition=bottom;shadow=0;dashed=0;align=center;html=1;verticalAlign=top;shape=mxgraph.electrical.opto_electronics.photodiode;pointerEvents=1;" vertex="1" parent="NtnauqmUkGIrvGF-mDY7-1">
          <mxGeometry x="35" y="10" width="100" height="70" as="geometry" />
        </mxCell>
        <mxCell id="NtnauqmUkGIrvGF-mDY7-4" value="" style="group" vertex="1" connectable="0" parent="1">
          <mxGeometry x="290" y="460" width="170" height="90" as="geometry" />
        </mxCell>
        <mxCell id="NtnauqmUkGIrvGF-mDY7-5" value="" style="rounded=1;whiteSpace=wrap;html=1;" vertex="1" parent="NtnauqmUkGIrvGF-mDY7-4">
          <mxGeometry width="170" height="90" as="geometry" />
        </mxCell>
        <mxCell id="NtnauqmUkGIrvGF-mDY7-6" value="" style="verticalLabelPosition=bottom;shadow=0;dashed=0;align=center;html=1;verticalAlign=top;shape=mxgraph.electrical.opto_electronics.led_1;pointerEvents=1;" vertex="1" parent="NtnauqmUkGIrvGF-mDY7-4">
          <mxGeometry x="35" y="12.5" width="100" height="65" as="geometry" />
        </mxCell>
        <mxCell id="NtnauqmUkGIrvGF-mDY7-7" value="" style="triangle;whiteSpace=wrap;html=1;rotation=90;fillColor=#dae8fc;strokeColor=#6c8ebf;" vertex="1" parent="1">
          <mxGeometry x="270.63" y="312.5" width="208.75" height="86.25" as="geometry" />
        </mxCell>
        <mxCell id="NtnauqmUkGIrvGF-mDY7-8" value="ADC: 0" style="text;html=1;align=center;verticalAlign=middle;resizable=0;points=[];autosize=1;strokeColor=none;fillColor=none;" vertex="1" parent="1">
          <mxGeometry x="470" y="198" width="60" height="30" as="geometry" />
        </mxCell>
      </root>
    </mxGraphModel>
  </diagram>
  <diagram id="IVRcGinrEXNccmrh68xT" name="IR on, shifted">
    <mxGraphModel dx="1106" dy="810" grid="1" gridSize="10" guides="1" tooltips="1" connect="1" arrows="1" fold="1" page="1" pageScale="1" pageWidth="850" pageHeight="1100" math="0" shadow="0">
      <root>
        <mxCell id="0" />
        <mxCell id="1" parent="0" />
        <mxCell id="Zj_5SwJ5iiRE5AlpdsrN-1" value="" style="group" vertex="1" connectable="0" parent="1">
          <mxGeometry x="290" y="140" width="170" height="90" as="geometry" />
        </mxCell>
        <mxCell id="Zj_5SwJ5iiRE5AlpdsrN-2" value="" style="rounded=1;whiteSpace=wrap;html=1;" vertex="1" parent="Zj_5SwJ5iiRE5AlpdsrN-1">
          <mxGeometry width="170" height="90" as="geometry" />
        </mxCell>
        <mxCell id="Zj_5SwJ5iiRE5AlpdsrN-3" value="" style="verticalLabelPosition=bottom;shadow=0;dashed=0;align=center;html=1;verticalAlign=top;shape=mxgraph.electrical.opto_electronics.photodiode;pointerEvents=1;" vertex="1" parent="Zj_5SwJ5iiRE5AlpdsrN-1">
          <mxGeometry x="35" y="10" width="100" height="70" as="geometry" />
        </mxCell>
        <mxCell id="Zj_5SwJ5iiRE5AlpdsrN-4" value="" style="group" vertex="1" connectable="0" parent="1">
          <mxGeometry x="290" y="460" width="278.75" height="90.5" as="geometry" />
        </mxCell>
        <mxCell id="Zj_5SwJ5iiRE5AlpdsrN-5" value="" style="rounded=1;whiteSpace=wrap;html=1;" vertex="1" parent="Zj_5SwJ5iiRE5AlpdsrN-4">
          <mxGeometry x="89.37" y="0.5" width="170" height="90" as="geometry" />
        </mxCell>
        <mxCell id="Zj_5SwJ5iiRE5AlpdsrN-6" value="" style="verticalLabelPosition=bottom;shadow=0;dashed=0;align=center;html=1;verticalAlign=top;shape=mxgraph.electrical.opto_electronics.led_1;pointerEvents=1;" vertex="1" parent="Zj_5SwJ5iiRE5AlpdsrN-4">
          <mxGeometry x="124.37" y="13" width="100" height="65" as="geometry" />
        </mxCell>
        <mxCell id="Zj_5SwJ5iiRE5AlpdsrN-7" value="" style="triangle;whiteSpace=wrap;html=1;rotation=90;fillColor=#dae8fc;strokeColor=#6c8ebf;" vertex="1" parent="Zj_5SwJ5iiRE5AlpdsrN-4">
          <mxGeometry x="70" y="-147" width="208.75" height="86.25" as="geometry" />
        </mxCell>
        <mxCell id="Zj_5SwJ5iiRE5AlpdsrN-8" value="ADC: 40" style="text;html=1;align=center;verticalAlign=middle;resizable=0;points=[];autosize=1;strokeColor=none;fillColor=none;" vertex="1" parent="1">
          <mxGeometry x="465" y="198" width="70" height="30" as="geometry" />
        </mxCell>
      </root>
    </mxGraphModel>
  </diagram>
  <diagram id="oZFsu0KJkH4sULAZ7tnu" name="IR on, far">
    <mxGraphModel dx="1106" dy="810" grid="1" gridSize="10" guides="1" tooltips="1" connect="1" arrows="1" fold="1" page="1" pageScale="1" pageWidth="850" pageHeight="1100" math="0" shadow="0">
      <root>
        <mxCell id="0" />
        <mxCell id="1" parent="0" />
        <mxCell id="FvI1YnIM-wAAgNy5PLEF-1" value="" style="group" vertex="1" connectable="0" parent="1">
          <mxGeometry x="290" y="140" width="170" height="90" as="geometry" />
        </mxCell>
        <mxCell id="FvI1YnIM-wAAgNy5PLEF-2" value="" style="rounded=1;whiteSpace=wrap;html=1;" vertex="1" parent="FvI1YnIM-wAAgNy5PLEF-1">
          <mxGeometry width="170" height="90" as="geometry" />
        </mxCell>
        <mxCell id="FvI1YnIM-wAAgNy5PLEF-3" value="" style="verticalLabelPosition=bottom;shadow=0;dashed=0;align=center;html=1;verticalAlign=top;shape=mxgraph.electrical.opto_electronics.photodiode;pointerEvents=1;" vertex="1" parent="FvI1YnIM-wAAgNy5PLEF-1">
          <mxGeometry x="35" y="10" width="100" height="70" as="geometry" />
        </mxCell>
        <mxCell id="FvI1YnIM-wAAgNy5PLEF-4" value="" style="group" vertex="1" connectable="0" parent="1">
          <mxGeometry x="290" y="597.5" width="170" height="90" as="geometry" />
        </mxCell>
        <mxCell id="FvI1YnIM-wAAgNy5PLEF-5" value="" style="rounded=1;whiteSpace=wrap;html=1;" vertex="1" parent="FvI1YnIM-wAAgNy5PLEF-4">
          <mxGeometry width="170" height="90" as="geometry" />
        </mxCell>
        <mxCell id="FvI1YnIM-wAAgNy5PLEF-6" value="" style="verticalLabelPosition=bottom;shadow=0;dashed=0;align=center;html=1;verticalAlign=top;shape=mxgraph.electrical.opto_electronics.led_1;pointerEvents=1;" vertex="1" parent="FvI1YnIM-wAAgNy5PLEF-4">
          <mxGeometry x="35" y="12.5" width="100" height="65" as="geometry" />
        </mxCell>
        <mxCell id="FvI1YnIM-wAAgNy5PLEF-7" value="" style="triangle;whiteSpace=wrap;html=1;rotation=90;fillColor=#dae8fc;strokeColor=#6c8ebf;" vertex="1" parent="1">
          <mxGeometry x="270.63" y="450" width="208.75" height="86.25" as="geometry" />
        </mxCell>
        <mxCell id="FvI1YnIM-wAAgNy5PLEF-8" value="ADC: 200" style="text;html=1;align=center;verticalAlign=middle;resizable=0;points=[];autosize=1;strokeColor=none;fillColor=none;" vertex="1" parent="1">
          <mxGeometry x="460" y="198" width="80" height="30" as="geometry" />
        </mxCell>
      </root>
    </mxGraphModel>
  </diagram>
</mxfile>
